<svg xmlns="http://www.w3.org/2000/svg" xmlns:xlink="http://www.w3.org/1999/xlink" viewBox="6059 865 108 32">
  <defs>
    <style>
      .cls-1 {
        clip-path: url(#clip-Google_Play);
      }

      .cls-2 {
        fill: #e2e2e2;
      }

      .cls-3 {
        fill: #e3e3e3;
      }

      .cls-4 {
        fill: #2d2d2d;
      }

      .cls-5 {
        fill: #fff;
      }
    </style>
    <clipPath id="clip-Google_Play">
      <rect x="6059" y="865" width="108" height="32"/>
    </clipPath>
  </defs>
  <g id="Google_Play" data-name="Google Play" class="cls-1">
    <rect class="cls-5" x="6059" y="865" width="108" height="32"/>
    <g id="Group_24" data-name="Group 24" transform="translate(-58.9 209.14)">
      <g id="Group_17" data-name="Group 17" transform="translate(6117.9 655.86)">
        <path id="Path_8" data-name="Path 8" class="cls-2" d="M9.9,13.709a4.138,4.138,0,0,1,3.816-3.815,2.7,2.7,0,0,0,1.041.069q49.065,0,98.13,0a2.908,2.908,0,0,0,1.043-.064,4.929,4.929,0,0,1,2.42,1.194,4.206,4.206,0,0,1,1.4,3.063q.026,11.79,0,23.579a4.212,4.212,0,0,1-3.821,4.241,2.908,2.908,0,0,0-1.043-.064q-49.065,0-98.13,0a2.7,2.7,0,0,0-1.041.069A4.113,4.113,0,0,1,9.9,38.165a1.656,1.656,0,0,0,.07-.753q0-11.475,0-22.95A1.678,1.678,0,0,0,9.9,13.709Z" transform="translate(-9.9 -9.867)"/>
        <path id="Path_9" data-name="Path 9" class="cls-3" d="M114.9,9.892c-.3.277-.669.154-1.006.154q-49.1.008-98.205,0c-.336,0-.706.125-1-.159.35-.009.7-.026,1.051-.026h98.114C114.2,9.862,114.551,9.882,114.9,9.892Z" transform="translate(-10.871 -9.86)"/>
        <path id="Path_10" data-name="Path 10" class="cls-3" d="M14.687,50.1c.3-.285.667-.159,1-.159q49.1-.008,98.205,0c.336,0,.706-.124,1.005.154-.286.01-.572.03-.858.03q-49.248,0-98.5,0C15.259,50.125,14.973,50.108,14.687,50.1Z" transform="translate(-10.871 -17.985)"/>
        <path id="Path_11" data-name="Path 11" class="cls-3" d="M9.9,14.68c.268.264.16.6.16.907q.008,11.322,0,22.644c0,.305.108.643-.16.906Q9.9,26.907,9.9,14.68Z" transform="translate(-9.9 -10.838)"/>
        <path id="Path_12" data-name="Path 12" class="cls-4" d="M64.022,41.431q-24.579,0-49.158,0c-2.191,0-3.5-.882-3.9-2.63a4.679,4.679,0,0,1-.092-1.04q-.007-11.62,0-23.24a3.387,3.387,0,0,1,3.587-3.7c.223-.006.446,0,.67,0h97.742c.287,0,.574,0,.86.01a3.35,3.35,0,0,1,3.437,3.47q.041,11.811,0,23.622a3.358,3.358,0,0,1-3.412,3.495c-.35.018-.7.013-1.051.013Z" transform="translate(-10.096 -10.055)"/>
        <path id="Path_13" data-name="Path 13" class="cls-5" d="M58.882,31.8a8.414,8.414,0,0,0,1.432-.014c1.02-.18,1.079.428,1.04,1.156A4.467,4.467,0,0,1,58.777,37.1a5.346,5.346,0,0,1-6.84-7.7,5.326,5.326,0,0,1,7.327-1.5c.259.178.961.273.509.842-.306.387-.56.967-1.347.419a3.612,3.612,0,0,0-4.7.5,3.871,3.871,0,0,0-.456,4.761,3.8,3.8,0,0,0,4.452,1.491,3.038,3.038,0,0,0,1.963-1.94c.145-.422.07-.662-.457-.639-.7.029-1.405-.032-2.1.019-.6.043-.756-.163-.76-.75,0-.615.15-.869.8-.807C57.73,31.845,58.308,31.8,58.882,31.8Z" transform="translate(-18.245 -13.342)"/>
        <path id="Path_14" data-name="Path 14" class="cls-5" d="M88.234,37.919a2.859,2.859,0,0,1-3.659,0,3.249,3.249,0,0,1-1.288-3.544,3.207,3.207,0,0,1,2.534-2.556,1.815,1.815,0,0,1,.937-.061,3.535,3.535,0,0,0,2.375.184c.484-.166.64.142.634.631-.025,1.878.028,3.759-.022,5.636a3.107,3.107,0,0,1-2.153,3.249,3.274,3.274,0,0,1-3.733-1.183c-.15-.216-.688-.551-.118-.8.36-.159.793-.778,1.272-.077a1.724,1.724,0,0,0,2.263.659C88.171,39.674,88.313,38.866,88.234,37.919Z" transform="translate(-24.766 -14.294)"/>
        <path id="Path_15" data-name="Path 15" class="cls-5" d="M107.3,32.567c0-1.466.026-2.933-.014-4.4-.015-.557.166-.706.7-.686.986.039,1.976-.013,2.963.017a3.112,3.112,0,1,1-.085,6.214c-2,.021-2,.021-2,2.034,0,.287-.017.575,0,.86.04.554.037.922-.755.937-.829.015-.835-.358-.821-.964C107.324,35.245,107.3,33.906,107.3,32.567Z" transform="translate(-29.656 -13.435)"/>
        <path id="Path_17" data-name="Path 17" class="cls-5" d="M124.247,34.4c-.449-1.252-1.672-1.707-2.528-.926-.651.595-1.035.031-1.5-.108-.319-.095-.071-.369.038-.54a3.2,3.2,0,0,1,3.452-.965,2.514,2.514,0,0,1,2.014,2.454c.028,1.114.019,2.228,0,3.342,0,.24.2.674-.246.686-.4.011-1,.3-1.2-.193-.209-.52-.321-.164-.479-.053a2.561,2.561,0,0,1-2.541.253,2.065,2.065,0,0,1-1.421-1.861,2,2,0,0,1,1.176-2.012A3.692,3.692,0,0,1,124.247,34.4Z" transform="translate(-32.2 -14.295)"/>
        <path id="Path_18" data-name="Path 18" class="cls-5" d="M77.23,38.564a3.414,3.414,0,1,1,.194-6.826,3.414,3.414,0,0,1-.194,6.826Z" transform="translate(-22.885 -14.298)"/>
        <path id="Path_19" data-name="Path 19" class="cls-5" d="M67.979,38.565a3.413,3.413,0,1,1,.048-6.825,3.413,3.413,0,1,1-.048,6.825Z" transform="translate(-20.986 -14.299)"/>
        <path id="Path_20" data-name="Path 20" class="cls-5" d="M97.223,36.238c.9,1.125,1.924,1.283,2.887.359.652-.626.907.056,1.244.269.571.363-.049.583-.229.763a3.425,3.425,0,0,1-4.375.3,3.621,3.621,0,0,1-.968-4.472A3.144,3.144,0,0,1,99.5,31.869a2.848,2.848,0,0,1,1.141.665c1.3,1.234,1.215,1.746-.4,2.411q-1.409.579-2.815,1.163A1.489,1.489,0,0,0,97.223,36.238Z" transform="translate(-27.244 -14.297)"/>
        <path id="Path_21" data-name="Path 21" class="cls-5" d="M130.825,36.1q.546-1.4,1.093-2.792c.545-1.385.546-1.385,2.163-1.32a8.446,8.446,0,0,1-.782,1.985c-.961,2.247-2,4.461-2.9,6.733-.365.929-1.006.662-1.624.674-.206,0-.238-.166-.159-.343a3.293,3.293,0,0,1,.232-.521,4.2,4.2,0,0,0,.045-4.986,15.95,15.95,0,0,1-1.195-2.694c-.1-.257-.552-.722-.06-.822.453-.092,1.177-.426,1.5.34.471,1.11.919,2.23,1.37,3.347C130.57,35.845,130.6,36,130.825,36.1Z" transform="translate(-33.739 -14.323)"/>
        <path id="Path_24" data-name="Path 24" class="cls-5" d="M118.466,32.562c0,1.429-.038,2.86.017,4.287.027.693-.331.658-.813.673-.521.015-.792-.037-.784-.694q.059-4.334,0-8.67c-.01-.689.32-.664.8-.675.517-.011.817.034.792.7C118.429,29.639,118.466,31.1,118.466,32.562Z" transform="translate(-31.603 -13.435)"/>
        <path id="Path_25" data-name="Path 25" class="cls-5" d="M92.622,32.5c0-1.429.03-2.86-.014-4.288-.019-.606.179-.765.756-.735.493.026.817.017.808.692q-.056,4.336,0,8.671c.009.684-.324.655-.813.685-.587.036-.768-.143-.75-.737C92.651,35.36,92.622,33.929,92.622,32.5Z" transform="translate(-26.678 -13.433)"/>
        <path id="Path_31" data-name="Path 31" class="cls-5" d="M55.564,19.868c-.468,0-.849-.01-1.23,0-.285.01-.49,0-.466-.392.019-.316.179-.357.428-.351.287.007.577-.026.86.008.389.046.942-.233,1.134.187a1.666,1.666,0,0,1-.242,1.544,2.483,2.483,0,0,1-3.018.946,2.584,2.584,0,0,1,.538-4.977,2.348,2.348,0,0,1,1.647.332c.194.141.6.228.4.61s-.432.261-.759.068a1.709,1.709,0,0,0-2.54.792,1.779,1.779,0,0,0,.946,2.449C54.254,21.52,55.145,21.081,55.564,19.868Z" transform="translate(-18.312 -11.271)"/>
        <path id="Path_32" data-name="Path 32" class="cls-5" d="M86.226,18.163c0,1.259,0,2.228,0,3.2,0,.257.039.508-.368.5-.383-.01-.381-.235-.381-.505,0-1.242-.006-2.484.008-3.726,0-.252-.156-.613.293-.682a.716.716,0,0,1,.811.341c.589.967,1.2,1.923,1.951,3.128,0-1.128,0-2,0-2.863,0-.278-.072-.593.378-.614.472-.022.391.308.393.58,0,1.21.014,2.421-.008,3.63,0,.239.193.607-.253.7a.685.685,0,0,1-.774-.4C87.662,20.422,87.019,19.423,86.226,18.163Z" transform="translate(-25.228 -11.294)"/>
        <path id="Path_33" data-name="Path 33" class="cls-5" d="M80.8,16.837a2.57,2.57,0,0,1-.037,5.139,2.438,2.438,0,0,1-2.488-2.64A2.412,2.412,0,0,1,80.8,16.837Z" transform="translate(-23.771 -11.276)"/>
        <path id="Path_34" data-name="Path 34" class="cls-5" d="M58.358,19.36a14.615,14.615,0,0,0-.012-1.619c-.079-.705.224-.877.863-.822.568.049,1.143.013,1.715.01.261,0,.426.092.429.38s-.151.394-.417.392c-.349,0-.7.016-1.048,0-.48-.026-.815-.032-.811.662,0,.67.3.654.795.7.421.036,1.216-.377,1.194.385-.018.607-.775.25-1.186.277-.5.033-.788.036-.8.7-.015.716.314.7.842.746.475.041,1.362-.365,1.358.309,0,.776-.906.326-1.38.348-1.535.07-1.538.026-1.538-1.507Z" transform="translate(-19.725 -11.29)"/>
        <path id="Path_37" data-name="Path 37" class="cls-5" d="M64.53,16.922c.412,0,.824.009,1.236,0,.31-.008.481.1.464.436a.337.337,0,0,1-.442.355c-.921-.164-.935.384-.9,1.057.039.854,0,1.711.013,2.567,0,.336-.064.545-.467.525-.379-.02-.368-.262-.368-.526,0-.951-.026-1.9.01-2.852.021-.537-.065-.859-.705-.774-.262.035-.613.088-.638-.351-.028-.508.353-.426.658-.433C63.77,16.916,64.15,16.921,64.53,16.922Z" transform="translate(-20.617 -11.292)"/>
        <path id="Path_38" data-name="Path 38" class="cls-5" d="M72.943,19.729a11.321,11.321,0,0,1,.007-1.14c.061-.6-.047-.992-.785-.879-.3.046-.587-.015-.557-.436.025-.369.3-.35.554-.351.792,0,1.585,0,2.377,0,.3,0,.586-.006.572.423-.012.367-.261.412-.525.367-.819-.14-.843.344-.82.949.033.886,0,1.774.011,2.662,0,.324-.038.556-.454.537-.37-.018-.384-.241-.381-.514C72.947,20.807,72.943,20.268,72.943,19.729Z" transform="translate(-22.418 -11.293)"/>
        <path id="Path_47" data-name="Path 47" class="cls-5" d="M70.631,19.5V21.41c0,.225.024.443-.32.447s-.438-.132-.436-.453q.017-2.008,0-4.014c0-.327.121-.46.445-.459.354,0,.308.249.309.465C70.634,18.1,70.631,18.8,70.631,19.5Z" transform="translate(-22.067 -11.295)"/>
        <path id="Path_56" data-name="Path 56" class="cls-4" d="M88.742,35.536A1.9,1.9,0,0,1,87,37.548a1.966,1.966,0,0,1-1.888-2A1.932,1.932,0,0,1,87.042,33.5,1.851,1.851,0,0,1,88.742,35.536Z" transform="translate(-25.158 -14.656)"/>
        <path id="Path_57" data-name="Path 57" class="cls-4" d="M109.254,30.834c.139-.451-.318-1.326.214-1.471a3.905,3.905,0,0,1,2.614.1,1.524,1.524,0,0,1,.945,1.7,1.575,1.575,0,0,1-1.345,1.412,3.993,3.993,0,0,1-.663.049C109.254,32.654,109.254,32.652,109.254,30.834Z" transform="translate(-30.045 -13.781)"/>
        <path id="Path_60" data-name="Path 60" class="cls-4" d="M123.566,36.261c.325.105.972-.112.988.587.014.619-.966,1.277-1.72,1.225-.537-.037-1.049-.176-1.074-.84C121.738,36.627,122.479,36.226,123.566,36.261Z" transform="translate(-32.592 -15.216)"/>
        <path id="Path_61" data-name="Path 61" class="cls-4" d="M77.679,37.563a1.992,1.992,0,0,1-1.85-2.038,1.9,1.9,0,0,1,1.83-2.021,1.94,1.94,0,0,1,1.924,2.049A2.028,2.028,0,0,1,77.679,37.563Z" transform="translate(-23.275 -14.657)"/>
        <path id="Path_62" data-name="Path 62" class="cls-4" d="M66.507,35.5A1.9,1.9,0,0,1,68.37,33.5a1.942,1.942,0,0,1,1.9,1.978,2,2,0,0,1-1.937,2.067A1.964,1.964,0,0,1,66.507,35.5Z" transform="translate(-21.383 -14.657)"/>
        <path id="Path_63" data-name="Path 63" class="cls-4" d="M100.308,34.107l-2.935,1.231a1.709,1.709,0,0,1,1.06-1.741A1.44,1.44,0,0,1,100.308,34.107Z" transform="translate(-27.644 -14.642)"/>
        <path id="Path_64" data-name="Path 64" class="cls-4" d="M82.7,19.619a1.717,1.717,0,0,1-1.777,1.806,1.819,1.819,0,0,1-1.71-1.817,1.791,1.791,0,0,1,1.767-1.843A1.69,1.69,0,0,1,82.7,19.619Z" transform="translate(-23.961 -11.464)"/>
        <g id="playstore" transform="translate(7.002 6.302)">
          <g id="Group_6" data-name="Group 6" transform="translate(1.498 0)">
            <g id="Group_5" data-name="Group 5" transform="translate(0)">
              <path id="Path_3" data-name="Path 3" class="cls-5" d="M62.3.311A1.938,1.938,0,0,0,60.8.052l8.916,8.916,2.89-2.89Z" transform="translate(-60.802 0)"/>
            </g>
          </g>
          <g id="Group_8" data-name="Group 8" transform="translate(0 0.777)">
            <g id="Group_7" data-name="Group 7">
              <path id="Path_4" data-name="Path 4" class="cls-5" d="M22.383,20.116a1.937,1.937,0,0,0-.392,1.166V37.164a1.938,1.938,0,0,0,.392,1.166l9.107-9.107Z" transform="translate(-21.991 -20.116)"/>
            </g>
          </g>
          <g id="Group_10" data-name="Group 10" transform="translate(11.33 6.735)">
            <g id="Group_9" data-name="Group 9">
              <path id="Path_5" data-name="Path 5" class="cls-5" d="M321.2,175.9l-2.6-1.453-3.148,3.148,3.148,3.148,2.6-1.453a1.943,1.943,0,0,0,0-3.39Z" transform="translate(-315.451 -174.45)"/>
            </g>
          </g>
          <g id="Group_12" data-name="Group 12" transform="translate(1.499 10.799)">
            <g id="Group_11" data-name="Group 11">
              <path id="Path_6" data-name="Path 6" class="cls-5" d="M69.73,279.711l-8.915,8.915a1.925,1.925,0,0,0,1.5-.259L72.62,282.6Z" transform="translate(-60.815 -279.711)"/>
            </g>
          </g>
        </g>
      </g>
    </g>
  </g>
</svg>
