<svg xmlns="http://www.w3.org/2000/svg" xmlns:xlink="http://www.w3.org/1999/xlink" viewBox="0 0 26 25"><defs><style>.a{clip-path:url(#b);}.b{fill:#1295c9;}</style><clipPath id="b"><rect width="26" height="25"/></clipPath></defs><g id="a" class="a"><path class="b" d="M22.6,1H7.4A2.348,2.348,0,0,0,5,3.3V5.7H18.6a3.222,3.222,0,0,1,3.2,3.2v5.2h.8A2.433,2.433,0,0,0,25,11.7V3.3A2.414,2.414,0,0,0,22.6,1Z"/><path class="b" d="M18.6,6.5H3.4A2.433,2.433,0,0,0,1,8.9v8.4a2.433,2.433,0,0,0,2.4,2.4H5.8v4c0,.2.2.3.4.3a.367.367,0,0,0,.3-.1l3.9-4.3h8.2A2.433,2.433,0,0,0,21,17.2V8.9A2.433,2.433,0,0,0,18.6,6.5Zm-11.9,8a1.324,1.324,0,0,1-1.3-1.3A1.24,1.24,0,0,1,6.7,12,1.324,1.324,0,0,1,8,13.3,1.24,1.24,0,0,1,6.7,14.5Zm4,0a1.324,1.324,0,0,1-1.3-1.3A1.24,1.24,0,0,1,10.7,12,1.324,1.324,0,0,1,12,13.3,1.24,1.24,0,0,1,10.7,14.5Zm4,0a1.324,1.324,0,0,1-1.3-1.3A1.24,1.24,0,0,1,14.7,12,1.324,1.324,0,0,1,16,13.3,1.24,1.24,0,0,1,14.7,14.5Z"/></g></svg>